<?xml version="1.0" standalone="no"?>
<svg xmlns="http://www.w3.org/2000/svg" viewBox="0 0 101.208 17.208" width="101.208" height="17.208"><path fill="#0019ff" fill-rule="nonzero" d="M2.81 16.97L0.10 16.97Q0 16.97 0 16.85L0 16.85L0.05 0.36Q0.05 0.26 0.14 0.26L0.14 0.26L3.07 0.26Q3.17 0.26 3.24 0.36L3.24 0.36L5.42 3.53L7.61 0.36Q7.68 0.26 7.78 0.26L7.78 0.26L10.73 0.26Q10.82 0.26 10.82 0.36L10.82 0.36L10.87 16.85Q10.87 16.97 10.78 16.97L10.78 16.97L8.06 16.97Q7.97 16.97 7.97 16.85L7.97 16.85L7.94 4.61L5.42 8.26L2.93 4.61L2.90 16.85Q2.90 16.97 2.81 16.97L2.81 16.97ZM17.88 16.97L15.12 16.97Q15.05 16.97 15.05 16.87L15.05 16.87L15.07 10.06L11.86 0.36Q11.83 0.26 11.93 0.26L11.93 0.26L14.59 0.26Q14.71 0.26 14.74 0.36L14.74 0.36L16.51 6.82L18.31 0.36Q18.34 0.26 18.43 0.26L18.43 0.26L21.12 0.26Q21.22 0.26 21.19 0.36L21.19 0.36L17.95 9.96L17.98 16.87Q17.98 16.97 17.88 16.97L17.88 16.97ZM27.62 16.97L24.72 16.97Q24.62 16.97 24.60 16.85L24.60 16.85L21.77 0.36Q21.74 0.26 21.84 0.26L21.84 0.26L24.53 0.26Q24.62 0.26 24.65 0.36L24.65 0.36L26.18 11.21L27.77 0.36Q27.79 0.26 27.91 0.26L27.91 0.26L30.07 0.26Q30.17 0.26 30.19 0.36L30.19 0.36L31.75 11.21L33.31 0.36Q33.34 0.26 33.43 0.26L33.43 0.26L36.10 0.26Q36.22 0.26 36.19 0.36L36.19 0.36L33.34 16.85Q33.31 16.90 33.26 16.93Q33.22 16.97 33.22 16.97L33.22 16.97L30.31 16.97Q30.24 16.97 30.19 16.85L30.19 16.85L28.97 8.23L27.74 16.85Q27.72 16.97 27.62 16.97L27.62 16.97ZM41.57 17.21L41.57 17.21Q40.27 17.21 39.20 16.55Q38.14 15.89 37.49 14.80Q36.84 13.70 36.84 12.38L36.84 12.38L36.86 4.78Q36.86 3.46 37.50 2.38Q38.14 1.30 39.22 0.65Q40.30 0 41.57 0L41.57 0Q42.86 0 43.92 0.65Q44.98 1.30 45.61 2.38Q46.25 3.46 46.25 4.78L46.25 4.78L46.27 12.38Q46.27 13.70 45.64 14.80Q45 15.89 43.93 16.55Q42.86 17.21 41.57 17.21ZM41.57 14.30L41.57 14.30Q42.29 14.30 42.83 13.72Q43.37 13.13 43.37 12.38L43.37 12.38L43.34 4.78Q43.34 3.98 42.84 3.43Q42.34 2.88 41.57 2.88L41.57 2.88Q40.82 2.88 40.30 3.42Q39.77 3.96 39.77 4.78L39.77 4.78L39.77 12.38Q39.77 13.18 40.30 13.74Q40.82 14.30 41.57 14.30ZM50.90 16.97L48.19 16.97Q48.10 16.97 48.10 16.85L48.10 16.85L48.14 0.36Q48.14 0.26 48.24 0.26L48.24 0.26L53.09 0.26Q54.38 0.26 55.48 0.90Q56.57 1.54 57.22 2.60Q57.86 3.67 57.86 5.02L57.86 5.02Q57.86 5.90 57.60 6.61Q57.34 7.32 56.98 7.81Q56.62 8.30 56.33 8.54L56.33 8.54Q57.62 9.98 57.62 11.93L57.62 11.93L57.65 16.85Q57.65 16.97 57.53 16.97L57.53 16.97L54.82 16.97Q54.72 16.97 54.72 16.90L54.72 16.90L54.72 11.93Q54.72 11.06 54.11 10.43Q53.50 9.79 52.61 9.79L52.61 9.79L51.02 9.79L51.00 16.85Q51.00 16.97 50.90 16.97L50.90 16.97ZM51.02 3.14L51.02 6.91L53.09 6.91Q53.83 6.91 54.41 6.36Q54.98 5.81 54.98 5.02L54.98 5.02Q54.98 4.25 54.42 3.70Q53.86 3.14 53.09 3.14L53.09 3.14L51.02 3.14ZM64.08 16.94L59.78 16.97Q59.66 16.97 59.66 16.85L59.66 16.85L59.71 0.36Q59.71 0.26 59.81 0.26L59.81 0.26L64.30 0.24Q65.62 0.22 66.71 0.86Q67.80 1.51 68.45 2.60Q69.10 3.70 69.10 5.02L69.10 5.02L69.10 11.90Q69.10 13.30 68.42 14.44Q67.75 15.58 66.62 16.25Q65.50 16.92 64.08 16.94L64.08 16.94ZM62.62 3.14L62.59 14.02L64.08 14.02Q64.97 14.02 65.58 13.39Q66.19 12.77 66.19 11.90L66.19 11.90L66.19 4.99Q66.19 4.22 65.63 3.66Q65.06 3.10 64.30 3.12L64.30 3.12L62.62 3.14ZM75.38 16.97L71.09 16.97Q70.99 16.97 70.99 16.85L70.99 16.85L71.04 0.36Q71.04 0.26 71.14 0.26L71.14 0.26L75.74 0.26Q77.11 0.26 78.19 0.92Q79.27 1.58 79.90 2.66Q80.52 3.74 80.52 5.02L80.52 5.02Q80.52 6.05 80.05 6.94Q79.58 7.82 78.94 8.38L78.94 8.38Q79.63 9.07 80.02 9.98Q80.40 10.90 80.40 11.90L80.40 11.90Q80.40 13.30 79.73 14.45Q79.06 15.60 77.92 16.28Q76.78 16.97 75.38 16.97L75.38 16.97ZM73.92 3.12L73.92 6.89L75.74 6.89Q76.58 6.89 77.10 6.30Q77.62 5.71 77.62 5.02L77.62 5.02Q77.62 4.25 77.06 3.68Q76.51 3.12 75.74 3.12L75.74 3.12L73.92 3.12ZM73.92 9.79L73.90 14.04L75.38 14.04Q76.25 14.04 76.87 13.40Q77.50 12.77 77.50 11.90L77.50 11.90Q77.50 11.04 76.87 10.42Q76.25 9.79 75.38 9.79L75.38 9.79L73.92 9.79ZM86.57 17.21L86.57 17.21Q85.27 17.21 84.20 16.55Q83.14 15.89 82.49 14.80Q81.84 13.70 81.84 12.38L81.84 12.38L81.86 4.78Q81.86 3.46 82.50 2.38Q83.14 1.30 84.22 0.65Q85.30 0 86.57 0L86.57 0Q87.86 0 88.92 0.65Q89.98 1.30 90.61 2.38Q91.25 3.46 91.25 4.78L91.25 4.78L91.27 12.38Q91.27 13.70 90.64 14.80Q90 15.89 88.93 16.55Q87.86 17.21 86.57 17.21ZM86.57 14.30L86.57 14.30Q87.29 14.30 87.83 13.72Q88.37 13.13 88.37 12.38L88.37 12.38L88.34 4.78Q88.34 3.98 87.84 3.43Q87.34 2.88 86.57 2.88L86.57 2.88Q85.82 2.88 85.30 3.42Q84.77 3.96 84.77 4.78L84.77 4.78L84.77 12.38Q84.77 13.18 85.30 13.74Q85.82 14.30 86.57 14.30ZM97.90 16.97L95.18 16.97Q95.09 16.97 95.09 16.85L95.09 16.85L95.09 3.17L91.97 3.17Q91.85 3.17 91.85 3.05L91.85 3.05L91.87 0.36Q91.87 0.26 91.97 0.26L91.97 0.26L101.09 0.26Q101.21 0.26 101.21 0.36L101.21 0.36L101.21 3.05Q101.21 3.17 101.11 3.17L101.11 3.17L97.97 3.17L97.99 16.85Q97.99 16.97 97.90 16.97L97.90 16.97Z"></path></svg>